PathFileType  4	(X/Y/Z) C:\PlaceHolderFilePath\
DataRate	CameraRate	NumFrames	NumMarkers	Units	OrigDataRate	OrigDataStartFrame	OrigNumFrames
  240.0		  240.0		   6		     47	     mm	  240.0	      1789	   2384
Frame#	Time	R_acr			L_acr			back_T			back_mid			back_B			R_asis			L_asis			R_psis			L_psis			R_ilium			L_ilium			R_thigh_TA			R_thigh_TP			R_thigh_BA			R_thigh_BP			R_kneejoint_LA			R_tibtub			R_shank_TA			R_shank_TP			R_shank_BA			R_shank_BP			R_fibula			R_ankle_LA			R_heel_T			R_heel_LA			R_heel_B			R_latfoot			R_met_5			R_toe			L_thigh_TA			L_thigh_TP			L_thigh_BA			L_thigh_BP			L_kneejoint_LA			L_tibtub			L_shank_TA			L_shank_TP			L_shank_BA			L_shank_BP			L_fibula			L_ankle_LA			L_heel_T			L_heel_LA			L_heel_B			L_latfoot			L_met_5			L_toe			
		X1	Y1	Z1	X2	Y2	Z2	X3	Y3	Z3	X4	Y4	Z4	X5	Y5	Z5	X6	Y6	Z6	X7	Y7	Z7	X8	Y8	Z8	X9	Y9	Z9	X10	Y10	Z10	X11	Y11	Z11	X12	Y12	Z12	X13	Y13	Z13	X14	Y14	Z14	X15	Y15	Z15	X16	Y16	Z16	X17	Y17	Z17	X18	Y18	Z18	X19	Y19	Z19	X20	Y20	Z20	X21	Y21	Z21	X22	Y22	Z22	X23	Y23	Z23	X24	Y24	Z24	X25	Y25	Z25	X26	Y26	Z26	X27	Y27	Z27	X28	Y28	Z28	X29	Y29	Z29	X30	Y30	Z30	X31	Y31	Z31	X32	Y32	Z32	X33	Y33	Z33	X34	Y34	Z34	X35	Y35	Z35	X36	Y36	Z36	X37	Y37	Z37	X38	Y38	Z38	X39	Y39	Z39	X40	Y40	Z40	X41	Y41	Z41	X42	Y42	Z42	X43	Y43	Z43	X44	Y44	Z44	X45	Y45	Z45	X46	Y46	Z46	X47	Y47	Z47	

1789	7.450000	829.876000	1645.087000	803.916000	779.773000	1624.497000	487.487000	692.815000	1369.678000	688.921000	700.476000	1302.296000	660.466000	716.736000	1270.963000	727.048000	904.295000	1075.401000	785.736000	925.029000	1099.745000	542.328000	714.134000	1141.870000	698.726000	718.571000	1141.618000	600.437000	705.829000	1104.320000	759.976000	729.231000	1108.209000	539.590000	753.487000	748.857000	806.393000	681.829000	772.504000	806.023000	737.709000	682.337000	787.950000	662.256000	707.263000	791.833000	624.492000	581.737000	769.639000	633.264000	500.308000	725.076000	551.802000	460.304000	779.401000	488.790000	497.442000	781.921000	504.846000	410.703000	773.527000	459.600000	451.736000	776.352000	387.516000	318.178000	742.820000	322.506000	233.010000	732.193000	277.425000	268.117000	691.376000	245.529000	230.389000	716.446000	234.157000	247.004000	676.192000	324.025000	137.823000	739.631000	320.117000	77.641000	747.165000	427.370000	47.299000	684.354000	1067.512000	854.103000	515.983000	1007.438000	809.418000	502.539000	1104.164000	795.325000	529.166000	1042.598000	748.628000	521.080000	1116.109000	639.848000	539.764000	1162.525000	584.125000	585.115000	1086.119000	507.925000	522.756000	1016.903000	515.087000	538.599000	1073.159000	442.799000	530.692000	1012.512000	462.665000	541.784000	1020.858000	303.149000	555.066000	996.087000	205.204000	561.017000	943.656000	200.043000	607.310000	946.910000	159.591000	569.363000	926.171000	152.337000	605.685000	1041.852000	148.967000	538.824000	1101.529000	111.125000	514.676000	1220.550000	134.805000	569.154000
1790	7.454170	830.425000	1647.377000	802.752000	779.395000	1626.614000	487.779000	693.803000	1371.694000	689.540000	701.254000	1304.412000	660.822000	718.029000	1272.868000	727.225000	905.108000	1076.694000	785.393000	925.787000	1101.292000	542.072000	715.179000	1144.187000	698.749000	719.480000	1144.171000	600.451000	706.876000	1106.501000	759.992000	730.229000	1110.948000	539.611000	752.029000	751.248000	805.925000	680.527000	775.407000	805.304000	735.745000	684.876000	787.450000	660.421000	710.622000	791.078000	621.507000	585.314000	768.946000	629.524000	503.314000	724.714000	547.626000	464.788000	779.312000	485.010000	502.620000	781.507000	500.169000	415.694000	773.846000	455.346000	457.131000	776.179000	382.175000	323.904000	743.857000	316.464000	239.288000	733.934000	273.596000	276.634000	693.055000	239.621000	240.103000	716.839000	229.674000	257.658000	676.684000	313.782000	144.132000	740.497000	307.061000	84.132000	747.076000	413.505000	46.428000	685.786000	1066.607000	853.851000	516.391000	1006.352000	809.561000	502.550000	1102.938000	794.699000	529.340000	1041.086000	748.409000	520.876000	1114.278000	638.561000	539.401000	1161.995000	584.482000	585.270000	1090.205000	504.945000	522.365000	1020.603000	509.171000	537.570000	1079.940000	439.318000	530.534000	1018.393000	456.629000	541.037000	1033.343000	297.746000	555.007000	1013.981000	198.716000	561.109000	960.896000	190.781000	606.571000	966.570000	150.635000	569.100000	945.759000	142.334000	605.237000	1062.740000	144.621000	539.758000	1124.391000	109.782000	516.448000	1241.174000	139.384000	572.622000
1791	7.458330	830.889000	1649.527000	801.755000	779.118000	1628.454000	488.049000	694.557000	1373.640000	690.152000	701.905000	1306.427000	661.008000	719.187000	1274.627000	727.126000	905.788000	1078.096000	785.037000	926.519000	1102.626000	541.712000	716.218000	1146.356000	698.764000	720.870000	1147.011000	600.864000	707.896000	1108.605000	759.927000	731.102000	1113.473000	539.853000	751.004000	753.437000	805.445000	679.666000	778.168000	804.689000	734.291000	687.043000	787.062000	659.158000	713.417000	790.348000	619.351000	588.463000	768.392000	626.506000	506.236000	723.930000	544.135000	469.022000	779.003000	481.881000	507.469000	780.931000	496.075000	420.363000	774.062000	451.708000	462.415000	775.972000	377.073000	329.700000	744.767000	310.648000	246.009000	735.582000	269.654000	285.230000	694.518000	233.967000	249.863000	717.249000	225.296000	268.294000	677.250000	304.076000	150.952000	741.224000	294.876000	91.055000	746.836000	400.090000	45.903000	687.430000	1065.762000	853.013000	516.411000	1005.211000	809.079000	502.324000	1101.575000	793.396000	529.394000	1039.409000	747.459000	520.394000	1111.987000	636.999000	538.542000	1160.913000	584.346000	585.352000	1093.867000	501.838000	521.905000	1024.151000	502.940000	536.516000	1086.459000	435.926000	530.279000	1024.031000	450.483000	539.902000	1045.869000	292.436000	554.933000	1031.304000	192.449000	560.984000	977.608000	182.113000	605.646000	986.080000	142.113000	568.474000	965.109000	132.965000	604.324000	1083.005000	140.895000	540.502000	1146.758000	108.931000	518.446000	1260.911000	144.606000	576.230000
1792	7.462500	831.336000	1651.497000	800.844000	779.030000	1630.203000	488.225000	695.117000	1375.456000	690.509000	702.424000	1308.196000	660.952000	720.077000	1276.256000	726.855000	906.477000	1079.557000	784.820000	927.191000	1103.734000	541.431000	717.120000	1148.431000	698.776000	721.739000	1148.962000	600.851000	708.797000	1110.717000	759.912000	731.814000	1115.243000	539.518000	750.557000	755.410000	804.964000	679.385000	780.461000	804.031000	733.540000	689.112000	786.434000	658.489000	715.804000	789.616000	618.009000	591.086000	767.782000	624.367000	508.859000	723.759000	541.177000	472.751000	778.875000	479.479000	512.146000	780.453000	492.558000	424.868000	774.226000	448.736000	467.437000	775.724000	372.193000	335.688000	745.468000	305.007000	253.048000	736.786000	265.687000	293.822000	695.598000	228.379000	259.745000	717.746000	221.012000	278.651000	677.708000	294.827000	158.361000	742.016000	283.333000	98.994000	747.060000	386.706000	45.367000	688.709000	1064.649000	851.077000	516.528000	1003.807000	807.917000	501.957000	1099.957000	791.222000	529.326000	1037.435000	745.910000	519.974000	1109.325000	634.789000	537.814000	1159.401000	583.743000	585.189000	1096.890000	498.675000	521.345000	1027.595000	496.634000	535.300000	1092.535000	432.502000	529.764000	1029.250000	444.406000	538.706000	1057.819000	287.496000	554.681000	1048.315000	186.511000	560.933000	994.253000	173.929000	604.858000	1005.375000	134.146000	568.009000	984.305000	124.226000	603.480000	1102.638000	137.499000	541.476000	1168.229000	108.603000	520.694000	1279.513000	150.152000	580.246000
1793	7.466670	831.763000	1653.313000	799.953000	779.140000	1631.762000	488.322000	695.644000	1376.951000	690.407000	702.908000	1309.694000	660.637000	720.802000	1277.643000	726.440000	907.198000	1080.936000	784.534000	927.830000	1104.595000	541.211000	718.056000	1150.150000	698.610000	722.843000	1150.846000	601.097000	709.689000	1112.766000	759.868000	732.485000	1116.540000	539.345000	750.693000	757.044000	804.434000	679.586000	782.349000	803.546000	733.408000	690.789000	785.975000	658.504000	717.716000	789.108000	617.461000	593.185000	767.392000	622.758000	510.788000	723.444000	538.906000	475.953000	778.705000	477.891000	516.291000	780.151000	489.475000	428.809000	774.229000	446.403000	472.182000	775.614000	367.541000	341.710000	745.810000	299.379000	260.126000	737.418000	261.429000	302.363000	696.362000	222.905000	269.353000	718.217000	216.426000	288.698000	678.132000	286.054000	165.930000	742.670000	272.922000	106.704000	747.396000	373.609000	44.948000	689.703000	1063.579000	848.499000	516.337000	1002.235000	806.113000	501.373000	1098.099000	788.295000	529.167000	1034.999000	743.676000	519.576000	1106.356000	632.118000	536.988000	1157.509000	582.669000	584.745000	1099.306000	495.588000	520.622000	1029.930000	490.437000	533.718000	1097.556000	429.395000	529.164000	1033.961000	438.332000	536.709000	1069.252000	282.865000	554.333000	1064.830000	181.228000	560.731000	1010.452000	166.312000	603.646000	1024.200000	126.904000	567.465000	1003.042000	116.100000	602.619000	1121.866000	134.683000	542.711000	1188.992000	108.930000	523.087000	1297.127000	156.485000	584.333000
1794	7.470830	832.148000	1654.623000	799.164000	779.410000	1633.070000	488.387000	696.400000	1377.921000	689.537000	703.287000	1311.142000	660.082000	721.347000	1278.943000	725.754000	907.848000	1082.384000	784.184000	928.504000	1105.366000	540.889000	718.958000	1151.833000	698.380000	723.695000	1152.108000	601.094000	710.497000	1114.692000	759.837000	733.068000	1117.364000	539.155000	751.340000	758.305000	803.939000	680.284000	783.751000	803.183000	733.944000	692.075000	785.504000	659.091000	719.170000	788.740000	617.700000	594.775000	767.088000	621.753000	512.116000	723.088000	537.153000	478.733000	778.553000	476.930000	520.218000	779.975000	486.892000	432.476000	774.241000	444.571000	476.544000	775.501000	363.111000	347.723000	745.931000	293.559000	267.403000	738.047000	257.045000	310.893000	696.740000	217.683000	278.981000	718.547000	211.761000	298.427000	678.473000	277.775000	173.633000	743.082000	262.969000	115.044000	747.963000	361.532000	48.122000	690.332000	1062.298000	845.462000	515.985000	1000.481000	803.883000	500.667000	1095.886000	784.762000	529.111000	1032.292000	741.134000	518.916000	1103.053000	629.128000	536.112000	1155.116000	581.326000	584.330000	1101.110000	492.486000	519.872000	1031.845000	484.251000	532.219000	1102.031000	426.384000	528.492000	1038.132000	432.679000	534.993000	1079.961000	278.510000	554.126000	1080.761000	176.543000	560.562000	1026.206000	159.177000	602.627000	1042.474000	120.165000	567.003000	1021.211000	108.801000	601.821000	1140.108000	132.610000	543.626000	1208.669000	109.811000	525.776000	1313.302000	163.015000	588.385000
